<svg width="28" height="29" viewBox="0 0 22 23" fill="none" xmlns="http://www.w3.org/2000/svg">
<path fill-rule="evenodd" clip-rule="evenodd" d="M11.0022 2.12305L2.00279 8.15503L5.74855 10.5873L10.224 7.57123L8.44873 6.40512L10.8804 4.77598L16.1569 8.27749L7.50039 14.089L9.37276 15.329L20.1446 8.15594L20.1203 8.13163L11.0022 2.12305V2.12305ZM19.9767 2.12556L16.2322 4.6058L18.1045 5.87018L19.9767 4.6058V2.12556ZM1.94104 20.2597L5.68566 17.7796L3.81341 16.5151L1.94104 17.7796V20.2597V20.2597Z" fill="#F3D11C"/>
<path fill-rule="evenodd" clip-rule="evenodd" d="M10.9982 20.2544L19.9975 14.2223L16.2519 11.79L11.7766 14.8061L13.5516 15.9722L11.1201 17.6015L5.84355 14.0999L14.4999 8.28852L12.6277 7.04834L1.85571 14.2214L1.88002 14.246L10.9982 20.2544V20.2544Z" fill="#F3D11C"/>
</svg>
