<svg width="64" height="22" viewBox="0 0 64 22" fill="none" xmlns="http://www.w3.org/2000/svg">
<g clip-path="url(#clip0_903_286)">
<path d="M41.5144 0.661511C41.3362 0.661591 41.1598 0.696789 40.9953 0.765093C40.8307 0.833397 40.6812 0.933467 40.5553 1.05958C40.3065 1.30838 40.1573 1.6598 40.1573 2.02055V18.4242C40.1573 18.785 40.3003 19.1302 40.5553 19.3852C40.6813 19.5113 40.8308 19.6113 40.9954 19.6796C41.1601 19.7478 41.3365 19.783 41.5147 19.783C41.693 19.783 41.8694 19.7478 42.034 19.6796C42.1987 19.6113 42.3482 19.5113 42.4742 19.3852C42.7229 19.1364 42.8722 18.785 42.8722 18.4242V2.01993C42.8722 1.65918 42.7292 1.31398 42.4742 1.05896C42.3482 0.932771 42.1986 0.832658 42.0339 0.764352C41.8693 0.696046 41.6927 0.660887 41.5144 0.660889V0.661511ZM20.8383 6.4435C20.8383 5.69339 20.2306 5.08508 19.4824 5.08508C18.7341 5.08508 18.1265 5.69339 18.1265 6.4435V18.423C18.1265 19.1731 18.7341 19.7814 19.4824 19.7814C20.2306 19.7814 20.8383 19.1731 20.8383 18.423V6.4435Z" fill="#E0E0E0"/>
<path d="M21.2216 2.02235C21.2127 2.47808 21.0256 2.91219 20.7003 3.23149C20.3752 3.55044 19.9379 3.72911 19.4825 3.72911C19.027 3.72911 18.5898 3.55044 18.2646 3.23149C17.9394 2.91219 17.7522 2.47808 17.7434 2.02235C17.7432 1.56054 17.9264 1.11755 18.2528 0.790817C18.4141 0.629065 18.6057 0.500727 18.8166 0.41316C19.0276 0.325593 19.2538 0.280518 19.4822 0.280518C19.7106 0.280518 19.9367 0.325593 20.1477 0.41316C20.3587 0.500727 20.5503 0.629065 20.7115 0.790817C21.0379 1.11755 21.2211 1.56054 21.2209 2.02235H21.2216Z" fill="#4F4F4F"/>
<path d="M37.706 9.42041C36.4023 6.46845 33.3178 4.38231 29.7986 4.74306C28.6121 4.86848 27.4708 5.26701 26.4642 5.90742C25.4571 6.54826 24.612 7.4134 23.9949 8.43518C23.3775 9.45752 23.0048 10.6087 22.9058 11.7989C22.8063 12.9894 22.9841 14.1873 23.4239 15.2969C23.8636 16.4069 24.5539 17.4002 25.441 18.1991C26.3278 18.9975 27.3873 19.5799 28.5366 19.9009C29.6858 20.2217 30.8936 20.2719 32.0654 20.0474C33.2371 19.8229 34.3409 19.3299 35.2902 18.6072C35.4498 18.4847 35.5801 18.3281 35.6714 18.1488C35.7629 17.9696 35.8132 17.7718 35.8182 17.5703C35.8284 17.2129 35.6964 16.8661 35.4512 16.6059C35.206 16.3458 34.8675 16.1935 34.5102 16.1827C34.2031 16.1728 33.9019 16.2685 33.6568 16.4538C32.7174 17.1793 31.5495 17.5451 30.364 17.4851C29.4012 17.436 28.4728 17.111 27.6895 16.549C26.9027 15.9878 26.2923 15.2138 25.9299 14.3179C25.8804 14.1972 25.8774 14.0624 25.9214 13.9395C25.9654 13.8166 26.0533 13.7144 26.1681 13.6524C26.2442 13.6115 26.3293 13.5902 26.4156 13.5902H35.8356C36.2895 13.5921 36.7336 13.4589 37.1116 13.2076C37.4895 12.9563 37.7841 12.5982 37.9579 12.1789C38.0736 11.9006 38.1335 11.6021 38.1339 11.3007C38.1149 10.6536 37.9726 10.0161 37.7147 9.42227L37.706 9.42041ZM30.5998 7.3977C31.6083 7.39795 32.5935 7.70086 33.4279 8.26724C34.2629 8.83428 34.9086 9.63877 35.2814 10.5767C35.3129 10.6567 35.3247 10.7431 35.3157 10.8286C35.3063 10.914 35.2763 10.9959 35.2281 11.0671C35.18 11.1383 35.1153 11.1967 35.0395 11.2372C34.9637 11.2778 34.8791 11.2992 34.7932 11.2994H26.4057C26.3197 11.2995 26.235 11.2782 26.1594 11.2372C26.0835 11.1962 26.0188 11.1377 25.9703 11.0674C25.9218 10.9971 25.8919 10.9144 25.8832 10.8286C25.8742 10.7431 25.886 10.6567 25.9174 10.5767C26.2903 9.63877 26.936 8.83428 27.771 8.26724C28.6068 7.70369 29.5911 7.40105 30.5991 7.3977H30.5998ZM52.6324 17.4901C51.6655 17.4903 50.7191 17.2119 49.9062 16.6883C49.0926 16.1626 48.4454 15.4162 48.0403 14.5363C47.6394 13.6552 47.5001 12.6775 47.6391 11.7196C47.778 10.7617 48.1893 9.86388 48.824 9.13305L46.7714 7.38091C46.1069 8.15269 45.6017 9.04835 45.2849 10.0163C44.9673 10.9842 44.8436 12.0053 44.921 13.0211C44.9981 14.0368 45.2755 15.0276 45.7296 15.9363C46.19 16.8446 46.8252 17.6531 47.5987 18.3154C48.3718 18.9776 49.268 19.4806 50.2359 19.7958C51.2035 20.1109 52.2239 20.2313 53.2382 20.1503C54.2528 20.0693 55.2413 19.7882 56.1466 19.3231C57.0524 18.8584 57.8576 18.2194 58.5158 17.4428L56.4632 15.6913C55.9909 16.2549 55.4006 16.708 54.7341 17.0186C54.0681 17.3294 53.3419 17.4901 52.6069 17.4894L52.6324 17.4901Z" fill="#E0E0E0"/>
<path d="M52.6323 4.69703C51.5225 4.69566 50.4256 4.93436 49.4167 5.39676C48.407 5.85928 47.5091 6.53439 46.7844 7.37593L48.8308 9.12806C49.7024 8.12358 50.9359 7.50457 52.2622 7.40611C53.5884 7.30765 54.8998 7.73772 55.9102 8.60248C56.9208 9.46872 57.5489 10.6987 57.658 12.0253C57.7664 13.3521 57.3466 14.668 56.4899 15.6869L58.5362 17.4384C59.4884 16.311 60.0991 14.9351 60.2965 13.4726C60.4935 12.0097 60.2686 10.521 59.6484 9.18155C59.0283 7.84271 58.0384 6.70906 56.7953 5.91426C55.551 5.1224 54.1073 4.70028 52.6323 4.69703V4.69703Z" fill="#4F4F4F"/>
<path d="M15.6262 16.5147C15.3924 16.312 15.0963 16.1954 14.7871 16.1842C14.4779 16.173 14.1742 16.2679 13.9263 16.4531C13.1804 17.024 12.2897 17.3747 11.3548 17.4657C10.42 17.5567 9.47833 17.3844 8.63633 16.9681C7.79424 16.5512 7.08498 15.9078 6.58813 15.1102C6.09136 14.3119 5.82734 13.3906 5.8258 12.4503C5.82426 11.51 6.08526 10.5879 6.57942 9.7879C7.07318 8.98848 7.78041 8.34287 8.6214 7.92381C9.46198 7.50434 10.4032 7.32868 11.3385 7.41673C12.2738 7.50479 13.1658 7.85304 13.9133 8.42202C14.1582 8.61085 14.4606 8.70981 14.7699 8.70233C15.0791 8.69486 15.3763 8.58141 15.6119 8.38097C15.7643 8.25035 15.8856 8.08864 15.9665 7.90639C16.0473 7.72415 16.0884 7.52512 16.0846 7.32484C16.0809 7.12456 16.0311 6.92801 15.9416 6.7495C15.852 6.57099 15.7226 6.41362 15.5653 6.29171C14.4194 5.41455 13.0507 4.87588 11.6144 4.73675C10.1775 4.59713 8.73031 4.86327 7.43711 5.50492C6.14391 6.14657 5.05657 7.13802 4.29859 8.36666C3.53948 9.59542 3.1386 11.0118 3.14113 12.4561C3.14365 13.9004 3.54949 15.3153 4.3129 16.5414C5.0761 17.7663 6.16699 18.7529 7.46203 19.3897C8.75707 20.0265 10.2045 20.288 11.6405 20.1446C13.0763 20.0007 14.443 19.4575 15.5858 18.5766C15.7411 18.4548 15.8674 18.2999 15.9555 18.1233C16.0436 17.9467 16.0913 17.7526 16.0952 17.5553C16.0992 17.358 16.0592 17.1622 15.9782 16.9823C15.8972 16.8023 15.7772 16.6426 15.6268 16.5147H15.6262Z" fill="#E0E0E0"/>
</g>
<defs>
<clipPath id="clip0_903_286">
<rect width="63.5" height="21.1582" fill="white" transform="translate(0 0.112305)"/>
</clipPath>
</defs>
</svg>
