<svg width="64" height="22" viewBox="0 0 64 22" fill="none" xmlns="http://www.w3.org/2000/svg">
<g clip-path="url(#clip0_903_286)">
<path d="M42.0144 1.16151C41.8362 1.16159 41.6598 1.19679 41.4953 1.26509C41.3307 1.3334 41.1812 1.43347 41.0553 1.55958C40.8065 1.80838 40.6573 2.1598 40.6573 2.52055V18.9242C40.6573 19.285 40.8003 19.6302 41.0553 19.8852C41.1813 20.0113 41.3308 20.1113 41.4954 20.1796C41.6601 20.2478 41.8365 20.283 42.0147 20.283C42.193 20.283 42.3694 20.2478 42.534 20.1796C42.6987 20.1113 42.8482 20.0113 42.9742 19.8852C43.2229 19.6364 43.3722 19.285 43.3722 18.9242V2.51993C43.3722 2.15918 43.2292 1.81398 42.9742 1.55896C42.8482 1.43277 42.6986 1.33266 42.5339 1.26435C42.3693 1.19605 42.1927 1.16089 42.0144 1.16089V1.16151ZM21.3383 6.9435C21.3383 6.19339 20.7306 5.58508 19.9824 5.58508C19.2341 5.58508 18.6265 6.19339 18.6265 6.9435V18.923C18.6265 19.6731 19.2341 20.2814 19.9824 20.2814C20.7306 20.2814 21.3383 19.6731 21.3383 18.923V6.9435Z" fill="#E0E0E0"/>
<path d="M21.7216 2.52235C21.7127 2.97808 21.5256 3.41219 21.2003 3.73149C20.8752 4.05044 20.4379 4.22911 19.9825 4.22911C19.527 4.22911 19.0898 4.05044 18.7646 3.73149C18.4394 3.41219 18.2522 2.97808 18.2434 2.52235C18.2432 2.06054 18.4264 1.61755 18.7528 1.29082C18.9141 1.12906 19.1057 1.00073 19.3166 0.91316C19.5276 0.825593 19.7538 0.780518 19.9822 0.780518C20.2106 0.780518 20.4367 0.825593 20.6477 0.91316C20.8587 1.00073 21.0503 1.12906 21.2115 1.29082C21.5379 1.61755 21.7211 2.06054 21.7209 2.52235H21.7216Z" fill="#4F4F4F"/>
<path d="M38.206 9.92028C36.9023 6.96833 33.8178 4.88219 30.2986 5.24294C29.1121 5.36836 27.9708 5.76689 26.9642 6.4073C25.9571 7.04814 25.112 7.91328 24.4949 8.93506C23.8775 9.9574 23.5048 11.1086 23.4058 12.2988C23.3063 13.4892 23.4841 14.6872 23.9239 15.7968C24.3636 16.9068 25.0539 17.9 25.941 18.699C26.8278 19.4974 27.8873 20.0798 29.0366 20.4008C30.1858 20.7216 31.3936 20.7717 32.5654 20.5473C33.7371 20.3228 34.8409 19.8298 35.7902 19.107C35.9498 18.9846 36.0801 18.8279 36.1714 18.6486C36.2629 18.4695 36.3132 18.2717 36.3182 18.0702C36.3284 17.7128 36.1964 17.366 35.9512 17.1058C35.706 16.8457 35.3675 16.6934 35.0102 16.6825C34.7031 16.6727 34.4019 16.7684 34.1568 16.9537C33.2174 17.6792 32.0495 18.045 30.864 17.985C29.9012 17.9358 28.9728 17.6109 28.1895 17.0489C27.4027 16.4876 26.7923 15.7137 26.4299 14.8178C26.3804 14.697 26.3774 14.5622 26.4214 14.4394C26.4654 14.3165 26.5533 14.2143 26.6681 14.1523C26.7442 14.1114 26.8293 14.09 26.9156 14.0901H36.3356C36.7895 14.092 37.2336 13.9588 37.6116 13.7075C37.9895 13.4561 38.2841 13.0981 38.4579 12.6788C38.5736 12.4004 38.6335 12.102 38.6339 11.8006C38.6149 11.1535 38.4726 10.5159 38.2147 9.92215L38.206 9.92028ZM31.0998 7.89758C32.1083 7.89783 33.0935 8.20074 33.9279 8.76712C34.7629 9.33416 35.4086 10.1386 35.7814 11.0766C35.8129 11.1566 35.8247 11.243 35.8157 11.3285C35.8063 11.4139 35.7763 11.4958 35.7281 11.567C35.68 11.6382 35.6153 11.6966 35.5395 11.7371C35.4637 11.7777 35.3791 11.7991 35.2932 11.7993H26.9057C26.8197 11.7994 26.735 11.778 26.6594 11.7371C26.5835 11.6961 26.5188 11.6376 26.4703 11.5673C26.4218 11.497 26.3919 11.4143 26.3832 11.3285C26.3742 11.243 26.386 11.1566 26.4174 11.0766C26.7903 10.1386 27.436 9.33416 28.271 8.76712C29.1068 8.20357 30.0911 7.90093 31.0991 7.89758H31.0998ZM53.1324 17.9899C52.1655 17.9902 51.2191 17.7118 50.4062 17.1882C49.5926 16.6625 48.9454 15.916 48.5403 15.0361C48.1394 14.1551 48.0001 13.1774 48.1391 12.2195C48.278 11.2616 48.6893 10.3638 49.324 9.63293L47.2714 7.88079C46.6069 8.65257 46.1017 9.54823 45.7849 10.5161C45.4673 11.4841 45.3436 12.5052 45.421 13.521C45.4981 14.5367 45.7755 15.5275 46.2296 16.4362C46.69 17.3445 47.3252 18.153 48.0987 18.8153C48.8718 19.4775 49.768 19.9805 50.7359 20.2957C51.7035 20.6107 52.7239 20.7312 53.7382 20.6502C54.7528 20.5692 55.7413 20.288 56.6466 19.8229C57.5524 19.3583 58.3576 18.7193 59.0158 17.9427L56.9632 16.1912C56.4909 16.7548 55.9006 17.2079 55.2341 17.5185C54.5681 17.8293 53.8419 17.99 53.1069 17.9893L53.1324 17.9899Z" fill="#E0E0E0"/>
<path d="M53.1323 5.19703C52.0225 5.19566 50.9256 5.43436 49.9167 5.89676C48.907 6.35928 48.0091 7.03439 47.2844 7.87593L49.3308 9.62806C50.2024 8.62358 51.4359 8.00457 52.7622 7.90611C54.0884 7.80765 55.3998 8.23772 56.4102 9.10248C57.4208 9.96872 58.0489 11.1987 58.158 12.5253C58.2664 13.8521 57.8466 15.168 56.9899 16.1869L59.0362 17.9384C59.9884 16.811 60.5991 15.4351 60.7965 13.9726C60.9935 12.5097 60.7686 11.021 60.1484 9.68155C59.5283 8.34271 58.5384 7.20906 57.2953 6.41426C56.051 5.6224 54.6073 5.20028 53.1323 5.19703V5.19703Z" fill="#4F4F4F"/>
<path d="M16.1262 17.0148C15.8924 16.8121 15.5963 16.6955 15.2871 16.6843C14.9779 16.6731 14.6742 16.768 14.4263 16.9532C13.6804 17.5241 12.7897 17.8748 11.8548 17.9658C10.92 18.0569 9.97833 17.8845 9.13633 17.4682C8.29424 17.0513 7.58498 16.4079 7.08813 15.6104C6.59136 14.812 6.32734 13.8908 6.3258 12.9504C6.32426 12.0101 6.58526 11.088 7.07942 10.288C7.57318 9.48861 8.28041 8.84299 9.1214 8.42393C9.96198 8.00446 10.9032 7.8288 11.8385 7.91686C12.7738 8.00491 13.6658 8.35316 14.4133 8.92214C14.6582 9.11097 14.9606 9.20993 15.2699 9.20246C15.5791 9.19498 15.8763 9.08153 16.1119 8.88109C16.2643 8.75047 16.3856 8.58876 16.4665 8.40652C16.5473 8.22427 16.5884 8.02524 16.5846 7.82496C16.5809 7.62468 16.5311 7.42813 16.4416 7.24962C16.352 7.07111 16.2226 6.91375 16.0653 6.79184C14.9194 5.91467 13.5507 5.376 12.1144 5.23687C10.6775 5.09725 9.23031 5.36339 7.93711 6.00504C6.64391 6.64669 5.55657 7.63815 4.79859 8.86679C4.03948 10.0955 3.6386 11.5119 3.64113 12.9562C3.64365 14.4005 4.04949 15.8155 4.8129 17.0416C5.5761 18.2664 6.66699 19.253 7.96203 19.8898C9.25707 20.5267 10.7045 20.7882 12.1405 20.6447C13.5763 20.5008 14.943 19.9576 16.0858 19.0767C16.2411 18.9549 16.3674 18.8001 16.4555 18.6234C16.5436 18.4468 16.5913 18.2528 16.5952 18.0554C16.5992 17.8581 16.5592 17.6623 16.4782 17.4824C16.3972 17.3024 16.2772 17.1427 16.1268 17.0148H16.1262Z" fill="#E0E0E0"/>
</g>
<defs>
<clipPath id="clip0_903_286">
<rect width="63.5" height="21.1582" fill="white" transform="translate(0.5 0.612305)"/>
</clipPath>
</defs>
</svg>
