<svg width="49" height="24" viewBox="0 0 49 24" fill="none" xmlns="http://www.w3.org/2000/svg">
<path d="M10.4965 7.69041C10.9631 7.53264 11.4609 7.44849 11.9773 7.44849C14.238 7.44849 16.1253 9.07675 16.5567 11.2415L19.761 10.5788C19.0268 6.90153 15.8204 4.13306 11.9773 4.13306C11.0959 4.13306 10.2517 4.27821 9.45947 4.54749L10.4965 7.69041Z" fill="#FFCB05"/>
<path d="M6.71549 18.2215L8.88281 15.737C7.91633 14.8682 7.30658 13.5997 7.30658 12.186C7.30658 10.7744 7.91633 9.50589 8.88281 8.63916L6.71549 6.15259C5.07289 7.62939 4.03589 9.78568 4.03589 12.186C4.03589 14.5884 5.07289 16.7447 6.71549 18.2215" fill="#FFCB05"/>
<path d="M16.5567 13.137C16.1232 15.2996 14.238 16.9257 11.9794 16.9257C11.4609 16.9257 10.961 16.8416 10.4965 16.6817L9.45947 19.8288C10.2517 20.096 11.0979 20.2412 11.9794 20.2412C15.8183 20.2412 19.0227 17.4769 19.761 13.8038L16.5567 13.137Z" fill="#FFCB05"/>
<path d="M22.5631 15.8403C22.4573 15.6678 22.3163 15.3922 22.2292 15.1882C21.721 13.9933 21.6982 12.7563 22.1255 11.5698C22.5963 10.2676 23.4964 9.27258 24.6599 8.76349C26.1221 8.12607 27.7377 8.25018 29.1397 9.09377C30.0295 9.61128 30.66 10.4107 31.139 11.5425C31.1992 11.6876 31.2531 11.8412 31.307 11.9737L22.5631 15.8403ZM25.4833 10.6842C24.4442 11.1365 23.9091 12.1252 24.0211 13.2822L28.418 11.3616C27.661 10.4612 26.6779 10.1624 25.4833 10.6842V10.6842ZM28.9655 14.8621C28.9634 14.8621 28.9634 14.8642 28.9634 14.8642L28.8722 14.8011C28.6088 15.2324 28.2002 15.5837 27.6838 15.8109C26.7007 16.2442 25.7902 16.1328 25.1348 15.55L25.0747 15.6426C25.0747 15.6426 25.0747 15.6405 25.0726 15.6405L23.9568 17.334C24.2347 17.5296 24.5313 17.6937 24.8424 17.8262C26.0744 18.3458 27.3353 18.3206 28.5777 17.7736C29.4757 17.3781 30.1809 16.7765 30.662 16.0128L28.9655 14.8621ZM34.362 6.27271V15.6847L35.8055 16.2779L34.9863 18.2175L33.3935 17.5443C33.0367 17.3866 32.792 17.1467 32.6095 16.8754C32.4332 16.5998 32.3026 16.219 32.3026 15.7099V6.27271H34.362ZM38.0994 13.2885C38.0994 12.487 38.4499 11.7676 39.0016 11.2795L37.5207 9.60497C36.5169 10.5054 35.8843 11.8202 35.8843 13.2843C35.8823 14.7506 36.5148 16.0675 37.5166 16.9679L38.9953 15.2934C38.4457 14.8032 38.0994 14.088 38.0994 13.2885V13.2885ZM40.7292 15.9581C40.4388 15.9581 40.1568 15.9077 39.8954 15.8193L39.1882 17.9503C39.6715 18.1144 40.1879 18.2049 40.7271 18.2049C43.0707 18.207 45.0265 16.5198 45.4807 14.2794L43.3072 13.8292C43.0604 15.0472 42.0005 15.9602 40.7292 15.9581V15.9581ZM40.7354 8.3722C40.1982 8.3722 39.6818 8.46055 39.1986 8.62254L39.8996 10.7557C40.163 10.6673 40.443 10.619 40.7333 10.619C42.0068 10.6211 43.0687 11.5383 43.3092 12.7584L45.4828 12.3124C45.0369 10.0678 43.0811 8.3743 40.7354 8.3722V8.3722Z" fill="#F2F2F2"/>
</svg>
