<svg width="49" height="24" viewBox="0 0 49 24" fill="none" xmlns="http://www.w3.org/2000/svg">
<path d="M9.99647 7.19054C10.4631 7.03276 10.9609 6.94861 11.4773 6.94861C13.738 6.94861 15.6253 8.57688 16.0567 10.7416L19.261 10.0789C18.5268 6.40165 15.3204 3.63318 11.4773 3.63318C10.5959 3.63318 9.75174 3.77833 8.95947 4.04761L9.99647 7.19054Z" fill="#FFCB05"/>
<path d="M6.21549 17.7216L8.38281 15.2372C7.41633 14.3683 6.80658 13.0998 6.80658 11.6861C6.80658 10.2745 7.41633 9.00601 8.38281 8.13928L6.21549 5.65271C4.57289 7.12951 3.53589 9.2858 3.53589 11.6861C3.53589 14.0886 4.57289 16.2448 6.21549 17.7216" fill="#FFCB05"/>
<path d="M16.0567 12.637C15.6232 14.7996 13.738 16.4257 11.4794 16.4257C10.9609 16.4257 10.461 16.3416 9.99647 16.1817L8.95947 19.3288C9.75174 19.596 10.5979 19.7412 11.4794 19.7412C15.3183 19.7412 18.5227 16.9769 19.261 13.3038L16.0567 12.637Z" fill="#FFCB05"/>
<path d="M22.0631 15.3405C21.9573 15.168 21.8163 14.8924 21.7292 14.6883C21.221 13.4934 21.1982 12.2564 21.6255 11.0699C22.0963 9.76776 22.9964 8.7727 24.1599 8.26361C25.6221 7.62619 27.2377 7.75031 28.6397 8.59389C29.5295 9.1114 30.16 9.91081 30.639 11.0426C30.6992 11.1878 30.7531 11.3413 30.807 11.4739L22.0631 15.3405ZM24.9833 10.1843C23.9442 10.6366 23.4091 11.6253 23.5211 12.7824L27.918 10.8617C27.161 9.9613 26.1779 9.66257 24.9833 10.1843V10.1843ZM28.4655 14.3622C28.4634 14.3622 28.4634 14.3643 28.4634 14.3643L28.3722 14.3012C28.1088 14.7325 27.7002 15.0838 27.1838 15.311C26.2007 15.7444 25.2902 15.6329 24.6348 15.0501L24.5747 15.1427C24.5747 15.1427 24.5747 15.1406 24.5726 15.1406L23.4568 16.8341C23.7347 17.0297 24.0313 17.1938 24.3424 17.3264C25.5744 17.846 26.8353 17.8207 28.0777 17.2738C28.9757 16.8783 29.6809 16.2766 30.162 15.513L28.4655 14.3622ZM33.862 5.77283V15.1848L35.3055 15.778L34.4863 17.7176L32.8935 17.0445C32.5367 16.8867 32.292 16.6469 32.1095 16.3755C31.9332 16.0999 31.8026 15.7191 31.8026 15.21V5.77283H33.862ZM37.5994 12.7887C37.5994 11.9872 37.9499 11.2677 38.5016 10.7796L37.0207 9.10509C36.0169 10.0055 35.3843 11.3203 35.3843 12.7845C35.3823 14.2507 36.0148 15.5677 37.0166 16.468L38.4953 14.7935C37.9457 14.3033 37.5994 13.5881 37.5994 12.7887V12.7887ZM40.2292 15.4583C39.9388 15.4583 39.6568 15.4078 39.3954 15.3194L38.6882 17.4505C39.1715 17.6146 39.6879 17.705 40.2271 17.705C42.5707 17.7071 44.5265 16.02 44.9807 13.7795L42.8072 13.3293C42.5604 14.5474 41.5005 15.4604 40.2292 15.4583V15.4583ZM40.2354 7.87232C39.6982 7.87232 39.1818 7.96068 38.6986 8.12266L39.3996 10.2558C39.663 10.1675 39.943 10.1191 40.2333 10.1191C41.5068 10.1212 42.5687 11.0384 42.8092 12.2585L44.9828 11.8126C44.5369 9.5679 42.5811 7.87442 40.2354 7.87232V7.87232Z" fill="#F2F2F2"/>
</svg>
