<svg width="33" height="21" viewBox="0 0 33 21" fill="none" xmlns="http://www.w3.org/2000/svg">
<path d="M21.1969 18.0532H12.4475V2.32935H21.197L21.1969 18.0532Z" fill="#FF5F00"/>
<path d="M32.9998 10.1914C32.9998 15.7143 28.5234 20.1914 23.0011 20.1914C20.7591 20.1947 18.5815 19.4414 16.8208 18.0533C19.147 16.2223 20.6405 13.3811 20.6405 10.1914C20.6405 7.00167 19.147 4.16055 16.8208 2.3295C18.5815 0.94149 20.759 0.188163 23.001 0.191417C28.5232 0.191417 32.9997 4.6685 32.9997 10.1914" fill="#F79E1B"/>
<path d="M13.0021 10.1914C13.0021 7.00183 14.4956 4.16055 16.8211 2.3295C15.0608 0.941448 12.8835 0.188105 10.6418 0.191417C5.1195 0.191417 0.643066 4.6685 0.643066 10.1914C0.643066 15.7143 5.1195 20.1914 10.6418 20.1914C12.8836 20.1947 15.0609 19.4414 16.8213 18.0533C14.4959 16.2226 13.0021 13.3811 13.0021 10.1914Z" fill="#EB001B"/>
</svg>
