<svg width="96" height="18" viewBox="0 0 96 18" fill="none" xmlns="http://www.w3.org/2000/svg">
<g clip-path="url(#clip0_905_275)">
<path d="M13.0647 8.53344C13.0248 7.93523 12.8653 7.33702 12.5462 6.81858L9.83436 2.07279C9.63495 1.71387 9.47543 1.31506 9.39567 0.91626L9.27603 1.11566C8.59806 2.2722 8.59806 3.74778 9.27603 4.90431L11.4695 8.69296C12.1474 9.84949 12.1474 11.3251 11.4695 12.4816L11.3498 12.681C11.2701 12.2822 11.1105 11.8834 10.9111 11.5245L8.91711 8.05487L7.64093 5.82156C7.44153 5.46264 7.282 5.06383 7.20224 4.66503L7.0826 4.86443C6.40463 6.02097 6.40463 7.45666 7.0826 8.65308L9.27603 12.4417C9.954 13.5983 9.954 15.0738 9.27603 16.2304L9.15639 16.4298C9.07663 16.031 8.91711 15.6322 8.7177 15.2732L5.96595 10.5275C5.60702 9.88937 5.4475 9.17152 5.4475 8.45368C2.53622 9.21141 0.502319 10.8465 0.502319 12.7209C0.502319 15.353 4.41061 17.4667 9.23615 17.4667C14.0617 17.4667 17.97 15.353 17.97 12.7209C18.0099 10.9263 16.0158 9.29117 13.0647 8.53344V8.53344ZM21.3199 16.6292C21.3598 15.9512 21.4396 15.5125 21.639 14.9542C22.5562 15.3929 23.7527 15.5923 24.63 15.5923C26.1455 15.5923 27.0229 15.1137 27.0229 14.1167C27.0229 13.1596 26.3848 12.7209 24.8693 12.0429L24.0318 11.7239C22.4765 11.0459 21.4396 10.1685 21.4396 8.45368C21.4396 6.57929 22.7556 5.38288 25.3878 5.38288C26.4645 5.38288 27.4615 5.5424 28.3788 5.86144C28.3389 6.49953 28.2193 7.01798 28.0597 7.49654C27.1824 7.1775 26.1056 7.01798 25.3479 7.01798C23.9122 7.01798 23.2741 7.5763 23.2741 8.45368C23.2741 9.29117 23.9122 9.80961 25.0687 10.2882L25.9461 10.6471C28.0199 11.5245 28.8972 12.4816 28.8972 14.0768C28.8972 15.9512 27.4615 17.2673 24.6699 17.2673C23.3538 17.2673 22.2372 17.0679 21.3199 16.6292V16.6292ZM37.7108 8.77272V16.9881H36.0358L35.9561 15.9911C35.4775 16.7089 34.7996 17.1875 33.643 17.1875C31.4895 17.1875 30.0139 15.5923 30.0139 12.8405C30.0139 9.96914 31.5692 8.29415 34.6002 8.29415C35.7966 8.33403 36.7936 8.45368 37.7108 8.77272V8.77272ZM35.9162 15.1137V9.96914C35.5573 9.88937 35.1186 9.88937 34.6002 9.88937C32.7258 9.88937 31.8484 11.0459 31.8484 12.8804C31.8484 14.5554 32.5264 15.7518 34.1216 15.7518C34.8793 15.7119 35.4376 15.4726 35.9162 15.1137ZM46.9631 11.4846V16.9881H45.1685V11.8036C45.1685 10.4876 44.7298 9.88937 42.9352 9.88937C42.4965 9.88937 42.0179 9.92926 41.4995 10.009V16.9881H39.7049V8.77272C40.8614 8.49356 42.1376 8.29415 42.9751 8.29415C46.006 8.33403 46.9631 9.49057 46.9631 11.4846V11.4846ZM51.9881 15.672C52.5065 15.672 53.0249 15.5923 53.3839 15.4328C53.344 15.9113 53.2642 16.4697 53.1845 16.9482C52.7059 17.1476 52.1476 17.2274 51.669 17.2274C49.9143 17.2274 48.7976 16.4298 48.7976 14.4358V5.78168C49.3559 5.58228 50.0339 5.50252 50.5922 5.50252V8.6132H53.4636C53.4238 9.17153 53.3839 9.68997 53.3041 10.1685H50.5922V14.1965C50.5922 15.2334 51.1107 15.672 51.9881 15.672ZM61.679 8.77272V16.9881H60.004L59.9243 15.9911C59.4457 16.7089 58.7677 17.1875 57.6112 17.1875C55.4577 17.1875 53.9821 15.5923 53.9821 12.8405C53.9821 9.96914 55.5374 8.29415 58.5683 8.29415C59.7648 8.33403 60.7219 8.45368 61.679 8.77272V8.77272ZM59.8445 15.1137V9.96914C59.4856 9.88937 59.0469 9.88937 58.5285 9.88937C56.6541 9.88937 55.7767 11.0459 55.7767 12.8804C55.7767 14.5554 56.4547 15.7518 58.0499 15.7518C58.8076 15.7119 59.4058 15.4726 59.8445 15.1137V15.1137ZM70.9313 11.4846V16.9881H69.0968V11.8036C69.0968 10.4876 68.6581 9.88937 66.8635 9.88937C66.4248 9.88937 65.9462 9.92926 65.4278 10.009V16.9881H63.6332V8.77272C64.7897 8.49356 66.0659 8.29415 66.9034 8.29415C69.9343 8.33403 70.9313 9.49057 70.9313 11.4846V11.4846ZM80.0639 5.50252V16.9881H78.3889L78.3092 15.9512C77.8306 16.7089 77.1526 17.1875 75.9562 17.1875C73.8027 17.1875 72.3271 15.5923 72.3271 12.8405C72.3271 9.96914 73.8825 8.29415 76.9134 8.29415C77.3919 8.29415 77.8306 8.33403 78.2693 8.4138V5.70192C78.8276 5.5424 79.4657 5.50252 80.0639 5.50252V5.50252ZM78.2693 15.1137V10.0489C77.7907 9.96913 77.3122 9.88937 76.8336 9.88937C75.039 9.88937 74.2015 11.006 74.2015 12.8804C74.2015 14.5554 74.8795 15.7518 76.4747 15.7518C77.1925 15.7119 77.7907 15.4726 78.2693 15.1137ZM89.1567 13.4786H83.374C83.6133 14.9542 84.4508 15.6322 86.0859 15.6322C87.0829 15.6322 88.0799 15.4328 88.9573 14.9941C88.8775 15.4726 88.7978 16.1107 88.6781 16.6292C87.8406 16.9881 87.0031 17.1476 86.0061 17.1476C82.9752 17.1476 81.5395 15.4726 81.5395 12.681C81.5395 10.2483 82.6562 8.29415 85.5276 8.29415C88.1198 8.29415 89.2364 9.96914 89.2364 12.0429C89.2364 12.6012 89.2364 13.0001 89.1567 13.4786V13.4786ZM83.374 11.9632H87.4418C87.4418 10.6072 86.724 9.80961 85.4877 9.80961C84.1716 9.84949 83.4937 10.5673 83.374 11.9632V11.9632ZM95.4977 8.4138C95.4977 8.97212 95.4179 9.61021 95.3382 9.96914C94.8995 9.92925 94.5007 9.88937 93.9822 9.88937C93.5435 9.88937 93.1049 9.92925 92.6662 9.96914V16.9881H90.8715V8.77272C91.6293 8.49356 92.9453 8.29415 93.9423 8.29415C94.4608 8.33403 95.0989 8.33403 95.4977 8.4138V8.4138Z" fill="#E0E0E0"/>
</g>
<defs>
<clipPath id="clip0_905_275">
<rect width="96.0001" height="16.5504" fill="white" transform="translate(0 0.91626)"/>
</clipPath>
</defs>
</svg>
