<svg width="50" height="16" viewBox="0 0 50 16" fill="none" xmlns="http://www.w3.org/2000/svg">
<path d="M17.7537 15.6696L20.28 0.848932H24.3193L21.7923 15.6696H17.7537ZM36.3679 1.17406C35.2087 0.754149 33.9841 0.54344 32.7512 0.55175C28.7648 0.55175 25.9564 2.55937 25.9322 5.43729C25.9103 7.56435 27.9375 8.75073 29.468 9.4585C31.0385 10.1844 31.5663 10.6472 31.5588 11.2952C31.549 12.2873 30.3043 12.7402 29.1451 12.7402C27.53 12.7402 26.6725 12.5134 25.3469 11.9637L24.8275 11.7285L24.2611 15.042C25.2033 15.4548 26.9462 15.8132 28.755 15.8314C32.9962 15.8314 35.7494 13.8472 35.7811 10.7742C35.7963 9.09024 34.7225 7.80856 32.3936 6.75222C30.9834 6.07168 30.1198 5.61042 30.1289 4.91703C30.1289 4.30227 30.8601 3.64445 32.4397 3.64445C33.4746 3.62128 34.503 3.81444 35.459 4.21157L35.8205 4.38244L36.3679 1.17406V1.17406ZM46.7454 0.848932H43.6376C42.675 0.848932 41.9544 1.11209 41.5317 2.0724L35.5581 15.5939H39.8099C39.8099 15.5939 40.4905 13.7958 40.647 13.4011L45.7412 13.4071C45.8599 13.9183 46.2252 15.5939 46.2252 15.5939H49.9999L46.7454 0.848932ZM41.8039 10.3765C42.1374 9.52353 43.4115 6.23878 43.4115 6.23878C43.3873 6.2781 43.7427 5.38131 43.9461 4.82554L44.2191 6.10195C44.2191 6.10195 44.9919 9.63545 45.1529 10.3765H41.8039ZM14.326 0.848932L10.3849 10.9201L9.96526 8.87325C9.23179 6.51405 6.94594 3.95825 4.39014 2.67884L7.99398 15.5939L12.2526 15.5894L18.59 0.848932H14.3064" fill="url(#paint0_linear_3_2563)"/>
<path d="M6.53014 0.848487H0.0521702L0 1.15623C5.0617 2.38195 8.41068 5.34307 9.80125 8.90002L8.38648 2.09463C8.14225 1.15775 7.43451 0.877974 6.55813 0.845459" fill="#DFA43B"/>
<defs>
<linearGradient id="paint0_linear_3_2563" x1="27.195" y1="0.551514" x2="27.195" y2="15.8314" gradientUnits="userSpaceOnUse">
<stop stop-color="white"/>
<stop offset="1" stop-color="white" stop-opacity="0.75"/>
</linearGradient>
</defs>
</svg>
